<svg width="120" height="120" viewBox="0 0 120 120" fill="none" xmlns="http://www.w3.org/2000/svg">
<circle cx="60" cy="60" r="60" fill="#1E2772"/>
<path d="M82.0841 35.2501C80.4591 33.6251 77.8341 33.6251 76.2091 35.2501L52.7091 58.7501L58.5841 64.6251L82.0841 41.0835C83.6675 39.5001 83.6675 36.8335 82.0841 35.2501ZM99.7508 35.2085L58.5841 76.3751L44.0841 61.9168C42.4591 60.2918 39.8341 60.2918 38.2091 61.9168C36.5841 63.5418 36.5841 66.1668 38.2091 67.7918L55.6258 85.2085C57.2508 86.8335 59.8758 86.8335 61.5008 85.2085L105.626 41.1251C107.251 39.5001 107.251 36.8751 105.626 35.2501H105.584C104.001 33.5835 101.376 33.5835 99.7508 35.2085ZM14.6675 67.8335L32.0841 85.2501C33.7091 86.8751 36.3341 86.8751 37.9591 85.2501L40.8758 82.3335L20.5425 61.9168C18.9175 60.2918 16.2925 60.2918 14.6675 61.9168C13.0425 63.5418 13.0425 66.2085 14.6675 67.8335Z" fill="#FD7401"/>
</svg>
