<svg width="120" height="120" viewBox="0 0 120 120" fill="none" xmlns="http://www.w3.org/2000/svg">
<circle cx="60" cy="60" r="60" fill="#1E2772"/>
<path d="M93.3333 35.0001H59.9999L51.6666 26.6667H26.6666C22.0416 26.6667 18.3749 30.3751 18.3749 35.0001L18.3333 85.0001C18.3333 89.6251 22.0416 93.3334 26.6666 93.3334H93.3333C97.9583 93.3334 101.667 89.6251 101.667 85.0001V43.3334C101.667 38.7084 97.9583 35.0001 93.3333 35.0001ZM93.3333 85.0001H26.6666V35.0001H48.2083L56.5416 43.3334H93.3333V85.0001ZM59.9999 68.3334H68.3333V76.6667H76.6666V68.3334H84.9999V60.0001H76.6666V51.6667H68.3333V60.0001H59.9999V68.3334Z" fill="#FD7401"/>
</svg>
