<svg width="120" height="120" viewBox="0 0 120 120" fill="none" xmlns="http://www.w3.org/2000/svg">
<circle cx="60" cy="60" r="60" fill="#1E2772"/>
<path opacity="0.3" d="M35 93.3334H85V51.6667H35V93.3334ZM60 64.1667C64.5833 64.1667 68.3333 67.9167 68.3333 72.5001C68.3333 77.0834 64.5833 80.8334 60 80.8334C55.4167 80.8334 51.6667 77.0834 51.6667 72.5001C51.6667 67.9167 55.4167 64.1667 60 64.1667Z" fill="#FD7401"/>
<path d="M84.9998 43.3334H80.8332V35.0001C80.8332 23.5001 71.4998 14.1667 59.9998 14.1667C48.4998 14.1667 39.1665 23.5001 39.1665 35.0001H47.4998C47.4998 28.0834 53.0832 22.5001 59.9998 22.5001C66.9165 22.5001 72.4998 28.0834 72.4998 35.0001V43.3334H34.9998C30.4165 43.3334 26.6665 47.0834 26.6665 51.6667V93.3334C26.6665 97.9167 30.4165 101.667 34.9998 101.667H84.9998C89.5832 101.667 93.3332 97.9167 93.3332 93.3334V51.6667C93.3332 47.0834 89.5832 43.3334 84.9998 43.3334ZM84.9998 93.3334H34.9998V51.6667H84.9998V93.3334ZM59.9998 80.8334C64.5832 80.8334 68.3332 77.0834 68.3332 72.5001C68.3332 67.9167 64.5832 64.1667 59.9998 64.1667C55.4165 64.1667 51.6665 67.9167 51.6665 72.5001C51.6665 77.0834 55.4165 80.8334 59.9998 80.8334Z" fill="#FD7401"/>
</svg>
