<svg width="120" height="120" viewBox="0 0 120 120" fill="none" xmlns="http://www.w3.org/2000/svg">
<circle cx="60" cy="60" r="60" fill="#1E2772"/>
<path opacity="0.3" d="M30.8335 30.8335V89.1668H89.1668V30.8335H30.8335ZM64.1668 80.8335H55.8335V72.5002H64.1668V80.8335ZM64.1668 64.1668H55.8335V39.1668H64.1668V64.1668Z" fill="#FD7401"/>
<path d="M55.8333 72.5001H64.1667V80.8334H55.8333V72.5001ZM55.8333 39.1667H64.1667V64.1668H55.8333V39.1667ZM89.1667 22.5001H71.75C70 17.6667 65.4167 14.1667 60 14.1667C54.5833 14.1667 50 17.6667 48.25 22.5001H30.8333C30.25 22.5001 29.7083 22.5417 29.1667 22.6667C27.5417 23.0001 26.0833 23.8334 24.9583 24.9584C24.2083 25.7084 23.5833 26.6251 23.1667 27.6251C22.75 28.6251 22.5 29.6667 22.5 30.8334V89.1668C22.5 90.2918 22.75 91.4168 23.1667 92.4168C23.5833 93.4168 24.2083 94.2918 24.9583 95.0834C26.0833 96.2084 27.5417 97.0418 29.1667 97.3751C29.7083 97.4584 30.25 97.5001 30.8333 97.5001H89.1667C93.75 97.5001 97.5 93.7501 97.5 89.1668V30.8334C97.5 26.2501 93.75 22.5001 89.1667 22.5001ZM60 21.4584C61.7083 21.4584 63.125 22.8751 63.125 24.5834C63.125 26.2917 61.7083 27.7084 60 27.7084C58.2917 27.7084 56.875 26.2917 56.875 24.5834C56.875 22.8751 58.2917 21.4584 60 21.4584ZM89.1667 89.1668H30.8333V30.8334H89.1667V89.1668Z" fill="#FD7401"/>
</svg>
